<?xml version="1.0" encoding="UTF-8" standalone="no"?>
<!-- Created with Inkscape (http://www.inkscape.org/) -->

<svg
   width="48"
   height="48"
   viewBox="0 0 12.7 12.7"
   version="1.1"
   id="svg391"
   inkscape:version="1.2.2 (732a01da63, 2022-12-09)"
   sodipodi:docname="b-left-turn.svg"
   xmlns:inkscape="http://www.inkscape.org/namespaces/inkscape"
   xmlns:sodipodi="http://sodipodi.sourceforge.net/DTD/sodipodi-0.dtd"
   xmlns="http://www.w3.org/2000/svg"
   xmlns:svg="http://www.w3.org/2000/svg">
  <sodipodi:namedview
     id="namedview393"
     pagecolor="#505050"
     bordercolor="#eeeeee"
     borderopacity="1"
     inkscape:showpageshadow="0"
     inkscape:pageopacity="0"
     inkscape:pagecheckerboard="0"
     inkscape:deskcolor="#505050"
     inkscape:document-units="mm"
     showgrid="false"
     inkscape:zoom="13.455443"
     inkscape:cx="60.198686"
     inkscape:cy="32.77484"
     inkscape:window-width="1920"
     inkscape:window-height="1137"
     inkscape:window-x="-8"
     inkscape:window-y="-8"
     inkscape:window-maximized="1"
     inkscape:current-layer="layer1" />
  <defs
     id="defs388" />
  <g
     inkscape:label="Layer 1"
     inkscape:groupmode="layer"
     id="layer1">
    <path
       style="fill:#000000;stroke-width:0.264583"
       id="path401"
       d="M 5.3534905,0.93788218 C 5.3020586,1.1997934 5.2955216,1.4681918 5.285854,1.7341851 5.27363,2.0522358 5.284744,2.3704918 5.300845,2.688168 c 0.018153,0.2879232 0.04243,0.5753859 0.058903,0.863415 0.00506,0.09102 0.00826,0.1821209 0.011242,0.2732259 0.011589,0.3533635 0.51132,0.3369744 0.4997312,-0.016388 v 0 C 5.8675915,3.7132482 5.8642286,3.6180805 5.858929,3.5229977 5.8424772,3.2360404 5.8185473,2.9496295 5.8001997,2.6627934 5.7847433,2.3595965 5.7739248,2.0558344 5.7855267,1.7522726 5.7939728,1.5179596 5.7989758,1.2815763 5.840686,1.0503119 5.9201859,0.70581262 5.4329903,0.59338289 5.3534905,0.93788218 Z" />
    <path
       style="fill:#000000;stroke-width:0.264583"
       id="path403"
       d="m 5.5926402,1.1707715 c 0.1981941,0.059319 0.3994713,0.1101885 0.5932244,0.1835399 0.045835,0.017352 0.090355,0.037997 0.1355325,0.056996 0.1039837,0.052045 0.2148756,0.1178779 0.2393763,0.2416366 0.011874,0.059987 0.00271,0.074365 -0.00933,0.1334443 -0.010792,0.024058 -0.018796,0.049574 -0.03238,0.072173 -0.075022,0.1248087 -0.2086276,0.2131146 -0.3351469,0.2779865 -0.033779,0.01732 -0.069248,0.031124 -0.1038714,0.046686 -0.079675,0.035189 -0.1646484,0.055032 -0.2469449,0.082398 -0.021143,0.00703 -0.043718,0.011536 -0.062669,0.023255 -0.040081,0.024787 -0.106816,0.038504 -0.112785,0.08525 -0.01601,0.1253951 0.035979,0.2502532 0.053968,0.37538 0.035676,0.019653 0.070841,0.040261 0.1070271,0.058956 0.2346968,0.1212538 -0.082278,-0.051248 0.1694609,0.082413 0.093004,0.04938 0.1789488,0.1081932 0.2658028,0.1674302 0.07726,0.060281 0.1673275,0.1179999 0.2172004,0.2056791 0.02086,0.036673 0.030367,0.07272 0.043731,0.1127422 0.030164,0.1226254 0.06061,0.2512639 0.035729,0.3777038 -0.00305,0.015521 -0.0086,0.030443 -0.012904,0.045665 -0.00409,0.00303 -0.00719,0.00868 -0.012256,0.0091 -0.00354,2.911e-4 -0.00505,-0.00499 -0.00758,-0.00748 -0.0047,-6.615e-4 -0.00942,-0.0028 -0.014105,-0.00201 -0.038849,0.00666 -0.075845,0.021632 -0.1142809,0.030365 -0.026739,0.00607 -0.053797,0.010647 -0.080696,0.015968 -0.1173657,0.022082 -0.2352728,0.042983 -0.3545615,0.050871 -0.08122,0.00398 -0.1625909,0.00305 -0.2438815,0.00284 -0.00904,-3.07e-5 -0.046515,0.00116 -0.061625,-0.00204 -0.0014,-2.91e-4 0.00267,-0.00156 0.00409,-0.00135 0.00933,0.00143 0.019262,0.0018 0.027628,0.00617 0.07786,0.040601 0.064371,0.034812 0.1090752,0.09571 0.00222,0.00376 0.00391,0.014674 0.00666,0.011282 0.00398,-0.0049 -2.604e-4,-0.012623 -4.498e-4,-0.018934 -3.969e-4,-0.01347 -0.00138,-0.026928 -0.00135,-0.040403 1.03e-4,-0.052543 0.00685,-0.1047242 0.012205,-0.1569014 0.00217,-0.021627 0.00435,-0.043256 0.00653,-0.064884 C 5.8484663,3.376628 5.350979,3.3265662 5.3155799,3.678343 v 0 c -0.00217,0.021442 -0.00432,0.042881 -0.00647,0.064322 -0.014819,0.1466246 -0.028226,0.2962857 0.015436,0.4395872 0.018857,0.033524 0.031094,0.071758 0.056573,0.1005723 0.086719,0.098072 0.2050034,0.1198843 0.3279359,0.1169231 0.093294,2.299e-4 0.1866876,0.00119 0.2798752,-0.00405 C 6.1302133,4.3855036 6.2701472,4.3630436 6.4091127,4.3358566 6.528318,4.3108296 6.6534821,4.2873966 6.7617366,4.227982 6.9003026,4.151931 6.971185,4.0620083 7.0242515,3.9150537 7.0321215,3.8787517 7.0423435,3.8428797 7.0478685,3.8061475 7.078438,3.6028738 7.0407283,3.3979331 6.9836503,3.2029413 6.9411563,3.0938453 6.9351807,3.0614484 6.8704007,2.9630605 6.7847532,2.8329779 6.6592666,2.7356482 6.5352172,2.6449621 6.4296051,2.5732219 6.324448,2.5032632 6.2114048,2.4435219 c -0.011679,-0.00617 -0.1571506,-0.078942 -0.179107,-0.0871 -0.00235,-8.784e-4 -0.00206,0.0046 -0.00311,0.0069 0.00935,0.4280265 0.1018167,0.259443 -0.079666,0.3923927 -0.00768,0.00562 0.017338,-0.00795 0.026382,-0.010909 0.1052462,-0.03447 0.213115,-0.061608 0.3142999,-0.107882 0.049641,-0.023471 0.1006284,-0.044284 0.1489241,-0.070413 0.2305135,-0.1247105 0.446659,-0.302595 0.5538513,-0.5485562 0.026884,-0.061688 0.038018,-0.1291026 0.057027,-0.193654 C 7.0556714,1.6500671 7.0742505,1.6060543 7.0133196,1.4403339 6.9492449,1.266065 6.8220208,1.1309995 6.6679997,1.0322128 6.6188621,1.0006967 6.5650199,0.97720165 6.5135299,0.94969607 6.4581118,0.92682458 6.4033767,0.90222228 6.3472755,0.88108162 6.1523694,0.8076349 5.9503878,0.75491442 5.7507541,0.69642989 5.415344,0.5846265 5.25723,1.0589681 5.5926402,1.1707715 Z" />
    <path
       style="fill:#000000;stroke-width:0.264583"
       id="path405"
       d="M 9.6206669,6.8669997 C 9.4286426,6.5515656 9.1688276,6.2788125 8.8799201,6.0499667 8.7948002,5.9825424 8.7041936,5.9223507 8.6163302,5.8585425 8.1436339,5.5517113 7.610305,5.36074 7.0594529,5.2516944 6.9562508,5.2312659 6.8519328,5.2169432 6.7481727,5.1995678 6.4469536,5.1575295 6.1432341,5.1380961 5.8395195,5.1264716 5.6851496,5.1205635 5.4414025,5.1146395 5.2854047,5.1167852 5.1996032,5.1179758 5.1138888,5.1227436 5.0281308,5.1257228 4.7346234,5.1471938 4.4366076,5.1921327 4.1690229,5.3217812 4.0169581,5.3954587 3.9909109,5.4262501 3.8590513,5.5280207 3.6860017,5.6832595 3.5407134,5.8662694 3.4413322,6.0772164 3.3781693,6.2112866 3.369946,6.2587105 3.3284006,6.3994196 c -0.067358,0.277209 -0.077205,0.5627992 -0.081518,0.8466188 0.00293,0.1558083 -0.00619,0.3110854 -0.020174,0.4661259 -0.00151,0.017605 -0.00299,0.035212 -0.00449,0.052818 -0.029936,0.352284 0.4682691,0.3946189 0.4982046,0.042335 v 0 c 0.00143,-0.016759 0.00285,-0.03352 0.00427,-0.05028 0.015084,-0.1674741 0.024903,-0.3352557 0.022135,-0.5035373 0.00351,-0.2396511 0.00968,-0.4809056 0.06209,-0.7158622 0.027087,-0.097785 0.033236,-0.1342014 0.074648,-0.2271183 0.06668,-0.1496168 0.167285,-0.2790313 0.2862028,-0.3907673 0.079689,-0.066029 0.097977,-0.088219 0.1923079,-0.1367448 0.2107406,-0.1084096 0.4511201,-0.1381953 0.683832,-0.1576007 0.078835,-0.00288 0.1576258,-0.00749 0.2365052,-0.00863 0.4619638,-0.00666 0.925353,0.021101 1.3838327,0.076033 0.094291,0.01552 0.1890737,0.0283 0.2828724,0.046558 0.485057,0.094422 0.9563616,0.2578939 1.3745959,0.5246079 0.076407,0.054751 0.1552268,0.1062839 0.2292223,0.1642531 0.2418752,0.1894879 0.4614595,0.4142174 0.6265516,0.6740636 0.1663782,0.3119591 0.6075547,0.076665 0.4411765,-0.235294 z" />
    <path
       style="fill:#000000;stroke-width:0.264583"
       id="path407"
       d="M 2.5526741,7.1909087 C 2.711338,7.4277129 2.8910928,7.649752 3.0686875,7.87245 c 0.099612,0.1205381 0.1862727,0.2521421 0.2887728,0.3703788 0.043385,0.050046 0.1253826,0.1387075 0.1922479,0.1544421 0.073013,0.017182 0.149951,0.00438 0.2249265,0.00657 0.048108,-0.029186 0.099742,-0.053226 0.1443246,-0.087557 0.034462,-0.026538 0.060405,-0.062601 0.09092,-0.093596 0.028194,-0.028638 0.055677,-0.058034 0.085203,-0.085297 C 4.2286761,8.0140354 4.3765173,7.9073559 4.5223236,7.7993064 4.6751673,7.6855451 4.8302491,7.5748662 4.9841641,7.4625704 5.2697744,7.2541798 4.9750651,6.8502656 4.6894554,7.0586562 v 0 C 4.5344577,7.1717529 4.3782686,7.2831993 4.2243605,7.3977867 4.0584834,7.521042 3.8924386,7.6434428 3.7408908,7.7844739 c -0.033664,0.031328 -0.065655,0.064436 -0.097267,0.097833 -0.012557,0.013266 -0.036953,0.023873 -0.035141,0.04205 0.0013,0.012983 0.02595,-0.00271 0.038928,-0.00406 0.043207,0.010546 0.087967,0.016055 0.129622,0.031641 0.00859,0.00321 0.022995,0.028066 0.015565,0.022688 C 3.7556683,7.9478948 3.6909171,7.8593086 3.6730524,7.8365375 3.6410087,7.7956938 3.4834401,7.5915612 3.4595797,7.5606769 3.2938474,7.3529229 3.1262576,7.1457658 2.9766739,6.925911 2.7892909,6.6260984 2.3652917,6.891098 2.5526746,7.1909106 Z" />
  </g>
</svg>
