<?xml version="1.0" encoding="UTF-8" standalone="no"?>
<!-- Created with Inkscape (http://www.inkscape.org/) -->

<svg
   width="48"
   height="48"
   viewBox="0 0 12.7 12.7"
   version="1.1"
   id="svg420"
   inkscape:version="1.2.2 (732a01da63, 2022-12-09)"
   sodipodi:docname="b-right-turn.svg"
   xmlns:inkscape="http://www.inkscape.org/namespaces/inkscape"
   xmlns:sodipodi="http://sodipodi.sourceforge.net/DTD/sodipodi-0.dtd"
   xmlns="http://www.w3.org/2000/svg"
   xmlns:svg="http://www.w3.org/2000/svg">
  <sodipodi:namedview
     id="namedview422"
     pagecolor="#505050"
     bordercolor="#eeeeee"
     borderopacity="1"
     inkscape:showpageshadow="0"
     inkscape:pageopacity="0"
     inkscape:pagecheckerboard="0"
     inkscape:deskcolor="#505050"
     inkscape:document-units="mm"
     showgrid="false"
     inkscape:zoom="9.5144352"
     inkscape:cx="34.99945"
     inkscape:cy="42.882209"
     inkscape:window-width="1920"
     inkscape:window-height="1137"
     inkscape:window-x="-8"
     inkscape:window-y="-8"
     inkscape:window-maximized="1"
     inkscape:current-layer="layer1" />
  <defs
     id="defs417" />
  <g
     inkscape:label="Layer 1"
     inkscape:groupmode="layer"
     id="layer1">
    <path
       style="fill:#000000;stroke-width:0.264583"
       id="path428"
       d="m 5.2282986,0.98540982 c 0,0.32967228 0,0.65934448 0,0.98901668 -9.789e-4,0.4064446 -0.00164,0.8127925 0.00799,1.2191366 0.00601,0.2243746 0.00305,0.1167517 0.00886,0.3228703 0.00997,0.3534127 0.5097698,0.3393151 0.4998013,-0.014097 v 0 c -0.00578,-0.2049145 -0.00283,-0.098031 -0.0088,-0.3206507 -0.00958,-0.4023841 -0.00875,-0.8047737 -0.00785,-1.2072584 0,-0.3296722 0,-0.6593444 0,-0.98901669 0,-0.35355339 -0.4999998,-0.35355339 -0.4999998,0 z" />
    <path
       style="fill:#000000;stroke-width:0.264583"
       id="path430"
       d="m 5.6917198,1.0842586 c 0.2365655,-0.00498 0.4732258,0.00694 0.7065179,0.04839 0.063373,0.011259 0.1260798,0.025991 0.1891197,0.038987 0.103301,0.0293 0.2136616,0.055459 0.3118291,0.1013911 0.035627,0.01667 0.1066893,0.053457 0.123565,0.1008681 0.00222,0.00626 -0.025334,0.047466 -0.026284,0.04898 C 6.848639,1.6940849 6.5691919,1.847364 6.3112353,1.9966086 c -0.058922,0.030635 -0.117843,0.06127 -0.1767644,0.091905 -0.049115,0.024165 -0.098672,0.047454 -0.1473457,0.072497 -0.1566833,0.080612 -0.3352795,0.180772 -0.2617713,0.4204595 0.0264,0.08608 0.1363466,0.1176292 0.20452,0.1764437 0.1406845,0.038501 0.2878129,0.046339 0.4268247,0.091914 0.068552,0.022474 0.079031,0.032042 0.1397522,0.066129 0.1016235,0.06658 0.1273942,0.1048698 0.1296201,0.2234536 -0.017775,0.1737963 -0.093478,0.1990138 -0.2350952,0.2811201 -0.1904225,0.093655 -0.4001156,0.1430337 -0.6112481,0.1573487 -0.067204,-4.86e-5 -0.131136,-0.023275 -0.1894372,-0.055573 -0.017333,-0.026315 0.026968,0.030578 0.026825,0.0057 -0.062784,-0.3479342 -0.554837,-0.2591443 -0.4920533,0.08879 v 0 C 5.1561155,3.7700233 5.2207683,3.8879107 5.3620108,3.9671524 5.5048157,4.0382367 5.6566807,4.0852497 5.8183671,4.076384 6.1082972,4.0520582 6.3945965,3.9854952 6.6525232,3.8466678 6.7779658,3.7670726 6.8476632,3.7350154 6.9482128,3.6205374 7.0794657,3.4711031 7.1247663,3.2798906 7.1232336,3.0862188 7.1082793,2.9767466 7.1104436,2.9381828 7.0668736,2.8353678 6.9990966,2.6754251 6.8773333,2.5609307 6.7299352,2.4738205 6.6900088,2.4534453 6.6512183,2.430672 6.6101565,2.412695 6.4491634,2.3422115 6.2739267,2.3136941 6.1013511,2.2882375 c 0.033102,0.04601 0.096169,0.081437 0.099306,0.1380304 0.00462,0.083359 -0.050324,0.1592525 -0.078469,0.2378529 -7.673e-4,0.00214 -0.00699,-0.00335 -0.00507,-0.00457 C 6.2584099,2.5697643 6.4214919,2.5187398 6.5627704,2.4287312 6.8968413,2.2332471 7.3040001,1.9925612 7.4496664,1.6095417 7.4744023,1.5445036 7.4806783,1.4738756 7.4961839,1.4060425 7.4882226,1.3375551 7.4929877,1.266351 7.4722973,1.2005801 7.3654342,0.86089288 6.9897537,0.76173662 6.6872942,0.68172453 6.6149695,0.66710699 6.5430222,0.65047788 6.4703197,0.63787189 6.213158,0.59328229 5.9523719,0.57913531 5.6917198,0.58425865 c -0.3535535,0 -0.3535535,0.49999995 0,0.49999995 z" />
    <path
       style="fill:#000000;stroke-width:0.264583"
       id="path436"
       d="M 3.3973148,6.8692 C 3.4381114,6.603485 3.5196137,6.3465595 3.6716477,6.1224114 3.7138033,6.06026 3.7632208,6.0033577 3.8090075,5.9438309 4.1101854,5.5913326 4.5132778,5.367093 4.9481036,5.2196817 5.0553286,5.1833311 5.1651378,5.1551024 5.2736548,5.1228127 5.70167,5.0230886 6.138029,4.9274391 6.5792884,4.9137458 c 0.2300951,-0.00714 0.3123827,0.00937 0.5374669,0.03367 0.3230134,0.059338 0.6511964,0.1629484 0.9012372,0.3856958 0.037748,0.033627 0.070616,0.072362 0.1059241,0.1085437 0.2076167,0.2589472 0.3243276,0.5722295 0.409775,0.889236 0.026548,0.1008854 0.040145,0.2041425 0.052649,0.3074392 0.043324,0.3508889 0.5395564,0.2896188 0.4962319,-0.06127 v 0 C 9.0666495,6.4501204 9.0491804,6.3232691 9.0160813,6.1993605 8.9057037,5.798368 8.7517763,5.4061071 8.4765972,5.0872307 8.3353716,4.9495384 8.3137988,4.9152222 8.1489065,4.8068113 7.8543112,4.6131249 7.5141732,4.5066881 7.1685919,4.4501098 6.8966063,4.4226249 6.8179391,4.4056924 6.5395429,4.415328 6.0630413,4.4318195 5.5918205,4.5340666 5.1299464,4.64391 4.833844,4.7334341 4.7048279,4.7617903 4.4233835,4.8886223 4.0336014,5.0642765 3.6853121,5.3142083 3.4100391,5.6424602 3.352723,5.7194259 3.290638,5.7930599 3.2380904,5.8733568 3.0529792,6.1562223 2.9499049,6.4784752 2.9007395,6.8107792 2.8594298,7.1619109 3.3560051,7.2203317 3.3973148,6.8692 Z" />
    <path
       style="fill:#000000;stroke-width:0.264583"
       id="path438"
       d="m 7.60844,6.1544329 c 0.1815118,0.2032127 0.3555807,0.413286 0.5315103,0.6214282 0.1321549,0.1359405 0.3006556,0.401888 0.4915133,0.4563454 0.054309,0.015497 0.1123762,0.011396 0.1685642,0.017095 C 8.8675386,7.2153964 8.9430017,7.1940631 9.00256,7.1475866 9.0659973,7.0980834 9.1762431,6.9132407 9.2157266,6.8442582 9.3134777,6.673475 9.3978787,6.4947815 9.4884503,6.3201589 9.5150198,6.2685273 9.5415893,6.2168955 9.5681587,6.1652639 9.7299308,5.8508918 9.2853414,5.6221116 9.1235693,5.9364837 v 0 c -0.026329,0.051167 -0.052659,0.1023339 -0.078988,0.1535009 -0.085436,0.1647878 -0.165427,0.3330827 -0.2563505,0.4949529 -0.023082,0.041091 -0.049286,0.080366 -0.07265,0.1212972 -0.0095,0.016647 -0.041336,0.039981 -0.025897,0.051342 0.022987,0.016915 0.05685,-0.0051 0.085275,-0.00765 0.017939,0.00762 0.037452,0.012269 0.053814,0.022855 0.00421,0.00272 0.00828,0.017023 0.00394,0.014512 C 8.7973264,6.7668084 8.7320129,6.6923348 8.7122536,6.6706048 8.6579079,6.6108394 8.5731251,6.5122631 8.5217859,6.4530599 8.3368382,6.2343296 8.1545746,6.0128655 7.9619932,5.800881 7.7119934,5.550881 7.35844,5.9044344 7.60844,6.1544345 Z" />
    <path
       style="fill:#000000;stroke-width:0.264583"
       id="path440"
       d="M 9.3800246,5.6013617 C 9.3360054,5.7204112 9.2667861,5.8235159 9.1938971,5.9260562 9.1303553,6.0160193 9.063702,6.1036612 8.9992895,6.1929938 8.7925099,6.4797728 9.1980767,6.7722032 9.4048563,6.485424 v 0 C 9.4699507,6.3951458 9.5373723,6.306617 9.6015031,6.2156376 9.6935061,6.0860712 9.7790816,5.9533776 9.8369304,5.8044309 9.9805222,5.4813498 9.5236164,5.2782805 9.3800246,5.6013617 Z" />
  </g>
</svg>
