<?xml version="1.0" encoding="UTF-8" standalone="no"?>
<!-- Created with Inkscape (http://www.inkscape.org/) -->

<svg
   width="48"
   height="48"
   viewBox="0 0 12.7 12.7"
   version="1.1"
   id="svg630"
   inkscape:version="1.2.2 (732a01da63, 2022-12-09)"
   sodipodi:docname="f-left-turn.svg"
   xmlns:inkscape="http://www.inkscape.org/namespaces/inkscape"
   xmlns:sodipodi="http://sodipodi.sourceforge.net/DTD/sodipodi-0.dtd"
   xmlns="http://www.w3.org/2000/svg"
   xmlns:svg="http://www.w3.org/2000/svg">
  <sodipodi:namedview
     id="namedview632"
     pagecolor="#505050"
     bordercolor="#eeeeee"
     borderopacity="1"
     inkscape:showpageshadow="0"
     inkscape:pageopacity="0"
     inkscape:pagecheckerboard="0"
     inkscape:deskcolor="#505050"
     inkscape:document-units="mm"
     showgrid="false"
     inkscape:zoom="13.455443"
     inkscape:cx="35.450337"
     inkscape:cy="24.228113"
     inkscape:window-width="1920"
     inkscape:window-height="1137"
     inkscape:window-x="-8"
     inkscape:window-y="-8"
     inkscape:window-maximized="1"
     inkscape:current-layer="layer1" />
  <defs
     id="defs627" />
  <g
     inkscape:label="Layer 1"
     inkscape:groupmode="layer"
     id="layer1">
    <path
       style="fill:#000000;stroke-width:0.264583"
       id="path644"
       d="M 9.7999112,5.3919373 C 9.6304789,5.1580221 9.4388846,4.939598 9.230412,4.7396579 9.1667855,4.6786355 9.1002039,4.6207714 9.0351,4.561328 8.6475204,4.226933 8.2116723,3.9515944 7.7391688,3.7536384 7.6392557,3.7117797 7.5365204,3.677004 7.4351964,3.6386867 7.0351488,3.501609 6.6151145,3.4221462 6.1911102,3.4306801 5.9452374,3.4356278 5.8808484,3.4555721 5.6426139,3.496388 5.3403806,3.5671757 5.0454088,3.6769783 4.7799958,3.8398262 4.6023839,3.9488025 4.5686448,3.9871332 4.4069507,4.1219866 4.1625263,4.348902 3.9585082,4.616252 3.8052697,4.9125351 3.7219495,5.0736333 3.7080621,5.124691 3.6460572,5.28991 3.5672717,5.5084855 3.536447,5.7377925 3.5159008,5.9677521 c -0.0089,0.1018302 -0.010427,0.2040464 -0.010819,0.3061941 -6.7e-6,0.085316 2.614e-4,0.1706319 3.968e-4,0.2559479 6.086e-4,0.3535526 0.5006113,0.3526872 0.4999993,-8.731e-4 v 0 C 4.005332,6.4446133 4.0050812,6.360206 4.0050548,6.2757981 4.0053723,6.1878024 4.0063512,6.0997361 4.013913,6.0120008 4.0303092,5.8263236 4.0520635,5.6407343 4.1148113,5.4638159 4.1645652,5.3277492 4.1739044,5.2905987 4.241416,5.1569744 4.3647161,4.9129304 4.5308255,4.6924954 4.7290566,4.5043814 4.8516362,4.3998213 4.8865289,4.3619361 5.0214625,4.2776335 5.2388394,4.1418221 5.4811149,4.0496373 5.7292279,3.988817 5.9221584,3.953782 5.9790562,3.936142 6.1787494,3.93052 c 0.368078,-0.010361 0.7329128,0.058098 1.0804552,0.1761715 0.090491,0.033803 0.1822449,0.064401 0.2714736,0.1014084 0.4256629,0.1765427 0.8183668,0.4228965 1.1677242,0.7228851 0.058903,0.053496 0.1191601,0.1055391 0.1767096,0.1604888 0.1878304,0.1793457 0.3606824,0.3752326 0.5136777,0.5850607 0.2012461,0.290689 0.6123423,0.00608 0.4110961,-0.2846049 z" />
    <path
       style="fill:#000000;stroke-width:0.264583"
       id="path646"
       d="m 2.1555588,6.7411768 c 0.5237141,0.035906 1.0473743,0.072594 1.5711059,0.1082538 0.3463795,0.017031 0.6921598,0.055525 1.0390745,0.061339 0.066947,-0.00277 0.1355088,7.3e-5 0.201662,-0.01315 0.050879,-0.010171 0.059465,-0.015169 0.1053052,-0.032079 0.017145,-0.00848 0.034288,-0.016954 0.051431,-0.025432 C 5.436028,6.6736028 5.2005523,6.2325233 4.888662,6.3990299 v 0 c 9.525e-4,1.614e-4 0.00193,3.175e-4 0.00289,4.762e-4 -0.035414,0.018296 0.016796,-0.01007 0.00119,0.00371 -0.011692,0.010324 -0.1043397,0.00376 -0.1196493,0.0076 C 4.435082,6.4067451 4.0981558,6.3651875 3.7606358,6.3505764 3.2319931,6.3145828 2.7034384,6.2773022 2.1747815,6.2415372 1.8214893,6.2279482 1.8022727,6.7275794 2.155565,6.7411676 Z" />
    <path
       style="fill:#000000;stroke-width:0.264583"
       id="path648"
       d="m 1.8784723,6.5806549 c 0.1040229,0.2372649 0.2755934,0.4359857 0.4297199,0.6415717 0.1474693,0.1960417 0.2902628,0.3963464 0.4096747,0.6108883 0.1038595,0.1845254 0.1948127,0.3758647 0.2881834,0.5657937 0.067937,0.1535192 0.1413766,0.3041325 0.2200685,0.4523936 0.070414,0.1236295 0.1492496,0.2798971 0.3129079,0.2948842 0.05691,0.00521 0.1128506,-0.018121 0.1692759,-0.027183 0.031355,-0.02205 0.064814,-0.041379 0.094065,-0.066154 C 3.8652793,8.9995641 3.906943,8.9224635 3.947134,8.8521954 4.039893,8.6900209 3.9224484,8.8927082 4.0237833,8.7184419 4.148951,8.5011756 4.3066176,8.3064299 4.4681221,8.1156865 4.6406889,7.9310427 4.7987354,7.7340351 4.939226,7.5240726 5.0228513,7.4008609 5.0907158,7.2689748 5.1425085,7.129582 c 0.032469,-0.085615 0.04106,-0.1759246 0.043726,-0.2665971 7.673e-4,-0.041631 4.763e-4,-0.083271 1.857e-4,-0.124905 -0.00246,-0.3535447 -0.502436,-0.3500826 -0.4999878,0.00346 v 0 c 2.508e-4,0.03601 5.291e-4,0.072024 -1.8e-5,0.1080328 -8.467e-4,0.036579 -2.911e-4,0.073126 -0.013364,0.1079315 -0.036843,0.102875 -0.08886,0.1984817 -0.1498185,0.2891679 C 4.3939737,7.4413194 4.2455615,7.6216697 4.0864271,7.7927178 3.9061196,8.0059428 3.7312047,8.2244765 3.5914814,8.4672145 c -0.034357,0.059153 -0.068382,0.1184148 -0.1014415,0.1783017 -0.00381,0.0069 -0.00755,0.013838 -0.011335,0.020746 -0.00193,0.0035 -0.0097,0.011292 -0.0058,0.01048 0.013668,-0.00284 0.025458,-0.01147 0.038186,-0.017206 0.039331,-0.00172 0.079392,-0.012904 0.1179947,-0.00517 0.088028,0.017629 0.071853,0.034493 0.1112054,0.07935 0.00721,0.00822 -0.012896,-0.017658 -0.018875,-0.026806 C 3.6993099,8.6730828 3.6882591,8.6525657 3.6677631,8.6168893 3.5914893,8.4731862 3.5207622,8.3270491 3.454755,8.1783115 3.3574661,7.9804272 3.2625183,7.7811698 3.154205,7.5889677 3.0230344,7.3555465 2.8698761,7.1356068 2.7082358,6.922286 2.5832338,6.7555784 2.445907,6.5948215 2.348369,6.4097833 2.2275445,6.0775161 1.7576479,6.2483878 1.8784723,6.5806549 Z" />
    <path
       style="fill:#000000;stroke-width:0.264583"
       id="path650"
       d="M 4.966949,0.68043496 C 4.992108,0.95808928 5.015282,1.2359734 5.033139,1.5142062 5.047064,1.8029276 5.06077,2.091692 5.070612,2.3805903 5.072962,2.5057256 5.077512,2.6307136 5.084066,2.755692 5.102629,3.1087576 5.6019383,3.0825072 5.5833765,2.72944 v 0 C 5.5769538,2.6075302 5.5726499,2.4856148 5.5703215,2.3635479 5.5602875,2.0696345 5.546404,1.7758529 5.5321083,1.4821249 5.5137526,1.1971329 5.4901345,0.91248306 5.4642019,0.62809257 5.4271902,0.2764818 4.9299375,0.32882419 4.966949,0.68043496 Z" />
    <path
       style="fill:#000000;stroke-width:0.264583"
       id="path652"
       d="m 5.2854804,0.76125529 c 0.328753,0.0102883 0.6570353,0.0293032 0.9852713,0.0499589 0.3480038,0.0255963 0.6963028,0.0466586 1.0449467,0.0610987 0.3532513,0.0146182 0.3739245,-0.48495423 0.020675,-0.49957243 v 0 C 6.9913044,0.35847371 6.646587,0.33751178 6.3021535,0.31220119 5.9634736,0.29088953 5.624717,0.2711818 5.2854804,0.2612553 c -0.3535535,0 -0.3535535,0.49999999 0,0.49999999 z" />
    <path
       style="fill:#000000;stroke-width:0.264583"
       id="path654"
       d="m 5.3664871,2.0000662 c 0.5055007,0.011912 1.0101175,0.045237 1.5148409,0.0741 0.430122,0.022998 0.2217002,0.012345 0.6252561,0.032137 0.3531291,0.017316 0.3776181,-0.4820836 0.02449,-0.4993999 v 0 C 7.1303395,1.587256 7.337409,1.5978372 6.9098736,1.5749814 6.3956517,1.5455761 5.8815215,1.5115476 5.3664871,1.5000662 c -0.3535535,0 -0.3535535,0.5 0,0.5 z" />
  </g>
</svg>
