<?xml version="1.0" encoding="UTF-8" standalone="no"?>
<!-- Created with Inkscape (http://www.inkscape.org/) -->

<svg
   width="48"
   height="48"
   viewBox="0 0 12.7 12.7"
   version="1.1"
   id="svg5"
   inkscape:version="1.2.2 (732a01da63, 2022-12-09)"
   sodipodi:docname="f-right-turn.svg"
   xmlns:inkscape="http://www.inkscape.org/namespaces/inkscape"
   xmlns:sodipodi="http://sodipodi.sourceforge.net/DTD/sodipodi-0.dtd"
   xmlns="http://www.w3.org/2000/svg"
   xmlns:svg="http://www.w3.org/2000/svg">
  <sodipodi:namedview
     id="namedview7"
     pagecolor="#505050"
     bordercolor="#eeeeee"
     borderopacity="1"
     inkscape:showpageshadow="0"
     inkscape:pageopacity="0"
     inkscape:pagecheckerboard="0"
     inkscape:deskcolor="#505050"
     inkscape:document-units="mm"
     showgrid="false"
     inkscape:zoom="13.455443"
     inkscape:cx="39.612222"
     inkscape:cy="20.512145"
     inkscape:window-width="1920"
     inkscape:window-height="1137"
     inkscape:window-x="-8"
     inkscape:window-y="-8"
     inkscape:window-maximized="1"
     inkscape:current-layer="layer1" />
  <defs
     id="defs2" />
  <g
     inkscape:label="Layer 1"
     inkscape:groupmode="layer"
     id="layer1">
    <path
       style="fill:#000000;stroke-width:0.0290849"
       id="path492-0"
       d="M 1.5116302,9.3067784 C 1.4902994,8.994738 1.529346,8.6786903 1.6061719,8.3759204 1.6344435,8.2645036 1.6714045,8.1554589 1.7040207,8.0452281 1.8552447,7.6008214 2.0685517,7.1744424 2.3822599,6.8206889 2.5651912,6.6144063 2.6596688,6.5507538 2.8726579,6.3753242 3.4191218,5.9643278 4.0645809,5.7322019 4.7317682,5.6025468 4.8958013,5.5706701 5.0617284,5.5493883 5.2267086,5.5228086 6.1207253,5.4272347 7.0329254,5.4542763 7.9106723,5.6602345 8.0528132,5.6935874 8.1917715,5.7392169 8.3323207,5.778708 8.7206599,5.90346 9.0616859,6.0839816 9.335718,6.38962 c 0.1242753,0.1386091 0.1575365,0.2067805 0.2544785,0.3624753 0.1215642,0.225581 0.2141714,0.4669689 0.2711247,0.7168575 0.031025,0.1361186 0.035786,0.1967448 0.054011,0.3347155 0.031815,0.281322 0.054194,0.5636402 0.087331,0.844824 0.01136,0.1543456 0.05946,0.3017187 0.09276,0.4519044 0.01332,0.072408 0.02086,0.1454463 0.03369,0.2179829 0.05426,0.3056875 0.487921,0.2291867 0.433658,-0.076501 v 0 C 10.548748,9.1630985 10.541961,9.083463 10.52533,9.0051032 10.494921,8.8694327 10.45109,8.7363821 10.440027,8.5970587 10.406339,8.3136325 10.384646,8.0289303 10.351834,7.7454115 10.329501,7.5814777 10.324756,7.5184544 10.286887,7.3559819 10.218686,7.0633718 10.108436,6.781188 9.9629535,6.5183015 9.8399267,6.3255068 9.801206,6.2466255 9.6430837,6.075206 9.3149844,5.7195141 8.909385,5.5019962 8.4510901,5.3559502 8.2989398,5.3137213 8.1484599,5.2649732 7.9946383,5.2292637 7.0658616,5.0136498 6.1013315,4.9855731 5.1560148,5.0894775 4.7339453,5.1583122 4.5452595,5.1769277 4.1354555,5.2909452 3.5792438,5.4456971 3.0515964,5.6885912 2.5910577,6.0377788 2.3453897,6.242638 2.245941,6.3090958 2.034807,6.5509305 1.6874502,6.9487951 1.4488552,7.4247496 1.2813328,7.9219857 1.2457303,8.0442713 1.205332,8.1652697 1.1745255,8.2888429 1.0889311,8.6321838 1.0479161,8.9899288 1.0727554,9.3432374 1.098616,9.6526022 1.5374912,9.6161432 1.5116302,9.3067799 Z" />
    <path
       style="fill:#000000;stroke-width:0.0290849"
       id="path496-9"
       d="m 8.3755995,9.7013248 c 0.4153234,0.025741 0.8310461,0.041303 1.2470126,0.051953 0.4463369,0.00144 0.8912489,0.038303 1.3368269,0.059214 0.334649,0.013289 0.669535,0.019763 1.004422,0.023001 0.12795,0.00101 0.255906,8.863e-4 0.38386,7.596e-4 0.311407,-3.731e-4 0.31087,-0.439403 -5.41e-4,-0.439024 v 0 c -0.126354,1.427e-4 -0.252708,2.963e-4 -0.379059,-7.177e-4 -0.32941,-0.00317 -0.658821,-0.00954 -0.988,-0.02254 C 10.531412,9.3529625 10.083377,9.315821 9.6339041,9.314417 9.2239424,9.3039402 8.8142178,9.288664 8.4048905,9.263291 8.0941735,9.2426413 8.0648782,9.6806933 8.3755945,9.7013429 Z" />
    <path
       style="fill:#000000;stroke-width:0.0290849"
       id="path498-9"
       d="m 8.2441382,9.7391235 c 0.1599717,0.3748105 0.400781,0.7050095 0.6413486,1.0312375 0.2983048,0.394283 0.6392143,0.753133 0.9486232,1.13835 0.1036129,0.13139 0.199106,0.268861 0.291573,0.408178 0.171973,0.258805 0.539123,0.01636 0.367151,-0.242449 v 0 C 10.39289,11.924192 10.28984,11.775844 10.177806,11.63421 9.8719556,11.253853 9.5362594,10.898584 9.2402382,10.510212 9.0215154,10.214017 8.8007346,9.9155079 8.6530359,9.5760745 8.5373826,9.2878406 8.1284845,9.4508904 8.2441382,9.7391235 Z" />
    <path
       style="fill:#000000;stroke-width:0.0290849"
       id="path500-5"
       d="m 12.063287,9.5791922 c -0.15579,0.2244307 -0.27024,0.4738138 -0.379696,0.7229578 -0.120988,0.264165 -0.234533,0.532392 -0.375242,0.786919 -0.11174,0.202109 -0.250966,0.386385 -0.3948,0.566497 -0.120925,0.149508 -0.24431,0.296988 -0.356636,0.45318 -0.05048,0.08048 -0.09864,0.162227 -0.149575,0.242345 0.147752,-0.365647 0.134763,0.04609 0.230881,-0.07139 0.01366,-0.01669 -0.02809,-0.03272 -0.04213,-0.0491 -0.211333,-0.228009 -0.534792,0.06993 -0.323459,0.297939 v 0 c 0.03017,0.03133 0.05489,0.06897 0.09049,0.094 0.155469,0.109223 0.283478,0.13435 0.416504,-0.03692 0.04629,-0.0733 0.09173,-0.147031 0.135707,-0.221783 0.10725,-0.150535 0.22753,-0.290873 0.342946,-0.435069 0.159136,-0.19979 0.312714,-0.404531 0.436241,-0.628658 0.145962,-0.266597 0.267339,-0.545435 0.392596,-0.822118 0.101601,-0.232164 0.20805,-0.464347 0.353807,-0.6729342 C 12.601143,9.5388654 12.223507,9.3129889 12.06329,9.5791867 Z" />
    <path
       style="fill:#000000;stroke-width:0.0290849"
       id="path502-7"
       d="m 4.1590276,0.40320722 c 2.972e-4,0.29846109 -0.00216,0.59690138 0.0042,0.89530538 0.015198,0.452302 0.084988,0.9003532 0.1434079,1.3485343 0.041203,0.306312 0.074745,0.6135155 0.089477,0.9222587 0.00648,0.1621977 0.00688,0.3245479 0.00654,0.4868474 -4.283e-4,0.1046567 -8.025e-4,0.2093139 -9.917e-4,0.3139716 -8.73e-5,0.047966 -1.21e-4,0.095934 -1.431e-4,0.1438999 -2.091e-4,0.3104366 0.4402001,0.3107129 0.4403961,2.853e-4 v 0 c 2.93e-5,-0.047799 5.83e-5,-0.095598 1.432e-4,-0.1433973 C 4.8422327,4.2662858 4.8426278,4.16166 4.8430483,4.0570341 4.8433787,3.887437 4.8429052,3.717787 4.8359993,3.5483009 4.8204779,3.2276784 4.7863198,2.9085808 4.7433535,2.5904806 4.6869656,2.1579344 4.6192312,1.7255505 4.6035161,1.2890987 c -0.00644,-0.29525895 -0.00364,-0.59056469 -0.0041,-0.88588215 0,-0.31043711 -0.4403962,-0.31043711 -0.4403962,0 z" />
    <path
       style="fill:#000000;stroke-width:0.0290849"
       id="path508-4"
       d="m 4.8611914,2.9295434 c 0.3275589,0 0.6551178,0 0.9826769,0 0.1162627,0 0.2325236,0 0.3487855,0 0.3114071,0 0.3114071,-0.4390246 0,-0.4390246 v 0 c -0.1162613,0 -0.2325234,0 -0.3487855,0 -0.3275591,0 -0.655118,0 -0.9826769,0 -0.311407,0 -0.311407,0.4390246 0,0.4390246 z" />
    <path
       style="fill:#000000;stroke-width:0.106783"
       id="path614"
       d="m 4.4314948,0.65813125 c 0.2861757,0.008142 0.5723785,0.0181156 0.8586686,0.0240225 0.2423193,0.004775 0.4846635,0.00785 0.7270186,0.009112 0.1029511,-0.007715 0.2027813,0.006255 0.304179,0.0224712 0.2699905,0.0431608 0.3257907,-0.37451272 0.0558,-0.41767387 v 0 C 6.2580784,0.27702997 6.1396916,0.26204379 6.0190202,0.26916384 5.7784769,0.26791015 5.5379444,0.26485085 5.2974369,0.26011705 5.0087211,0.25416578 4.7201062,0.24394648 4.431495,0.23601965 c -0.2728586,0 -0.2728586,0.42211056 0,0.42211035 z" />
  </g>
</svg>
