<?xml version="1.0" encoding="UTF-8" standalone="no"?>
<!-- Created with Inkscape (http://www.inkscape.org/) -->

<svg
   width="48"
   height="48"
   viewBox="0 0 12.7 12.7"
   version="1.1"
   id="svg306"
   inkscape:version="1.2.2 (732a01da63, 2022-12-09)"
   sodipodi:docname="l-down-turn.svg"
   xmlns:inkscape="http://www.inkscape.org/namespaces/inkscape"
   xmlns:sodipodi="http://sodipodi.sourceforge.net/DTD/sodipodi-0.dtd"
   xmlns="http://www.w3.org/2000/svg"
   xmlns:svg="http://www.w3.org/2000/svg">
  <sodipodi:namedview
     id="namedview308"
     pagecolor="#505050"
     bordercolor="#eeeeee"
     borderopacity="1"
     inkscape:showpageshadow="0"
     inkscape:pageopacity="0"
     inkscape:pagecheckerboard="0"
     inkscape:deskcolor="#505050"
     inkscape:document-units="mm"
     showgrid="false"
     inkscape:zoom="9.5144352"
     inkscape:cx="10.195035"
     inkscape:cy="44.668968"
     inkscape:window-width="1920"
     inkscape:window-height="1137"
     inkscape:window-x="-8"
     inkscape:window-y="-8"
     inkscape:window-maximized="1"
     inkscape:current-layer="layer1" />
  <defs
     id="defs303" />
  <g
     inkscape:label="Layer 1"
     inkscape:groupmode="layer"
     id="layer1">
    <path
       style="fill:#000000;stroke-width:0.264583"
       id="path310"
       d="m 4.6766932,0.66992952 c 0.016621,0.31896914 0.017425,0.63859218 0.020122,0.95791848 0.00852,0.4405682 -0.014449,0.8807584 -0.033368,1.3207472 -0.00446,0.108086 -0.0067,0.159611 -0.010594,0.2638184 -0.00544,0.1456881 -0.00465,0.2782401 0.1228751,0.387023 0.056443,0.04815 0.1354723,0.060534 0.2032085,0.090801 0.064157,0.00681 0.1280671,0.016611 0.1924712,0.020434 0.076462,0.00454 0.5001942,0.0085 0.5494133,0.00897 0.3179342,0.00301 0.6358813,0.00417 0.9538261,0.00538 0.2187041,0.00148 0.4373197,0.0018 0.655987,-0.00209 0.353496,-0.00638 0.344474,-0.506298 -0.00902,-0.4999186 v 0 C 7.106587,3.226953 6.8916078,3.226343 6.6765428,3.225023 6.1548003,3.223043 5.6327872,3.223963 5.1112728,3.208071 c 0.03062,0.059603 0.025898,0.043615 0.045694,0.1301826 0.00124,0.00548 -0.00749,-0.00938 -0.00773,-0.014994 -0.0013,-0.03048 0.00209,-0.060979 0.00324,-0.091465 0.00385,-0.1033402 0.00608,-0.1544465 0.010507,-0.261716 0.019288,-0.4485521 0.042442,-0.8973118 0.033812,-1.3464523 -0.00283,-0.3345 -0.00319,-0.66941114 -0.022585,-1.00344548 C 5.1390301,0.26837544 4.6415115,0.3181273 4.6766913,0.66992608 Z" />
    <path
       style="fill:#000000;stroke-width:0.264583"
       id="path314"
       d="m 5.8719595,4.2337106 c 0.017653,0.3926686 0.019304,0.7859524 0.017293,1.178947 -0.019704,0.5982211 -0.046669,1.196027 -0.090006,1.7930011 -0.043279,0.5413687 -0.073066,1.0836079 -0.089913,1.6264096 -0.011271,0.2662269 -0.00892,0.5321842 0.00357,0.7982257 0.010983,0.1853898 0.00953,0.371204 0.018471,0.556638 0.00602,0.134957 0.016314,0.269429 0.030438,0.403761 0.037325,0.351577 0.5345313,0.298791 0.4972058,-0.05279 v 0 C 6.2456009,10.412895 6.2364754,10.287713 6.2307594,10.1621 6.2212238,9.9771609 6.2240257,9.7917065 6.2123523,9.606804 6.2004355,9.353742 6.1981812,9.1008051 6.2090926,8.8475568 6.2256767,8.3116564 6.2551965,7.7763208 6.2979344,7.2418386 6.3420304,6.6336618 6.3696561,6.0246251 6.389245,5.4151646 6.3912559,5.0085537 6.3897742,4.6015976 6.3704861,4.1953621 6.3433697,3.8428504 5.8448423,3.8811985 5.8719595,4.2337106 Z" />
    <path
       style="fill:#000000;stroke-width:0.264583"
       id="path316"
       d="m 3.921842,8.4089953 c 0.1370409,0.3533722 0.3817575,0.6493828 0.6129975,0.9444601 0.2890533,0.3683958 0.625493,0.6938896 0.9574284,1.0225506 0.1612402,0.150227 0.2983116,0.322768 0.4370853,0.493143 0.057394,0.07392 0.1197541,0.143394 0.184387,0.210942 0.2455418,0.25438 0.6052897,-0.09287 0.3597482,-0.347249 v 0 C 6.417924,10.676023 6.3660837,10.615966 6.317027,10.553382 6.1670056,10.369198 6.017956,10.18346 5.8440584,10.020699 5.5269733,9.7067628 5.2048068,9.3965942 4.9283294,9.0449661 4.7295802,8.7915635 4.5148081,8.5392809 4.3917385,8.2381237 4.2709142,7.9058568 3.8010173,8.0767281 3.921842,8.4089953 Z" />
    <path
       style="fill:#000000;stroke-width:0.264583"
       id="path318"
       d="M 7.7356498,8.3386201 C 7.5775875,8.6590041 7.3840646,8.9599425 7.1874937,9.2576141 6.9238931,9.659168 6.6083198,10.021624 6.3002934,10.388811 6.2089188,10.495841 6.123189,10.607327 6.0390642,10.720057 5.827832,11.003572 6.2287829,11.3023 6.4400154,11.018784 v 0 C 6.5182201,10.913627 6.598227,10.809868 6.6833598,10.710152 7.0036607,10.328319 7.3310249,9.9508065 7.604803,9.5330281 7.8197098,9.2072178 8.0322355,8.8775676 8.199888,8.5243153 8.3311946,8.1960494 7.8669562,8.010354 7.7356498,8.3386201 Z" />
  </g>
</svg>
