<?xml version="1.0" encoding="UTF-8" standalone="no"?>
<!-- Created with Inkscape (http://www.inkscape.org/) -->

<svg
   width="48"
   height="48"
   viewBox="0 0 12.7 12.7"
   version="1.1"
   id="svg214"
   inkscape:version="1.2.2 (732a01da63, 2022-12-09)"
   sodipodi:docname="l-up-turn.svg"
   xmlns:inkscape="http://www.inkscape.org/namespaces/inkscape"
   xmlns:sodipodi="http://sodipodi.sourceforge.net/DTD/sodipodi-0.dtd"
   xmlns="http://www.w3.org/2000/svg"
   xmlns:svg="http://www.w3.org/2000/svg">
  <sodipodi:namedview
     id="namedview216"
     pagecolor="#505050"
     bordercolor="#eeeeee"
     borderopacity="1"
     inkscape:showpageshadow="0"
     inkscape:pageopacity="0"
     inkscape:pagecheckerboard="0"
     inkscape:deskcolor="#505050"
     inkscape:document-units="mm"
     showgrid="false"
     inkscape:zoom="9.5144352"
     inkscape:cx="27.326898"
     inkscape:cy="36.576002"
     inkscape:window-width="1920"
     inkscape:window-height="1137"
     inkscape:window-x="-8"
     inkscape:window-y="-8"
     inkscape:window-maximized="1"
     inkscape:current-layer="layer1" />
  <defs
     id="defs211" />
  <g
     inkscape:label="Layer 1"
     inkscape:groupmode="layer"
     id="layer1">
    <path
       style="fill:#000000;stroke-width:0.264583"
       id="path285"
       d="m 5.3673417,4.6316656 c -0.00196,0.3518744 5.82e-4,0.7036348 0.00797,1.0554298 0.013965,0.29943 0.017468,0.5994823 0.038591,0.8985662 0.00843,0.1193369 0.033107,0.3795075 0.044299,0.5005814 0.047887,0.4298598 0.1152589,0.8571418 0.1713376,1.2859509 0.042567,0.3059703 0.059649,0.614331 0.068247,0.9228447 0.00538,0.268719 0.0045,0.5375106 0.00419,0.8062684 -2.453e-4,0.173774 -1.223e-4,0.08789 -3.705e-4,0.257659 -5.027e-4,0.353553 0.4994852,0.35428 0.4999996,7.14e-4 v 0 c 2.468e-4,-0.169841 1.238e-4,-0.0839 3.704e-4,-0.257827 3.175e-4,-0.273615 0.00119,-0.5472653 -0.00439,-0.8208394 C 6.1884154,8.955506 6.1701065,8.6301727 6.1253216,8.30734 6.0700533,7.8847835 6.0039022,7.4637084 5.9560824,7.040196 5.9464728,6.9362925 5.9205298,6.6618214 5.9131236,6.5576629 5.8922718,6.2644022 5.8890889,5.9701683 5.8752059,5.6765676 c -0.00733,-0.3482909 -0.00981,-0.6965452 -0.00786,-1.044915 0,-0.3535534 -0.5,-0.3535534 -0.5,0 z" />
    <path
       style="fill:#000000;stroke-width:0.264583"
       id="path289"
       d="M 5.3771096,4.3885683 C 5.2644576,4.5478718 5.1282404,4.6886045 4.9970785,4.8323843 4.8608022,4.9817705 4.8230234,5.0247843 4.6863962,5.1775386 4.3835113,5.5200033 4.114869,5.8902832 3.8481931,6.2610086 c -0.02978,0.042246 -0.059559,0.084492 -0.089339,0.1267381 -0.2036786,0.2889896 0.2050143,0.5770351 0.4086932,0.2880455 v 0 C 4.1963948,6.6348551 4.2252423,6.593918 4.2540898,6.5529811 4.5104338,6.1966104 4.768194,5.8403034 5.0590817,5.5108633 5.1959456,5.3578307 5.2289638,5.3201479 5.3653142,5.1706187 5.5156914,5.0057071 5.671277,4.8436932 5.7976986,4.6589471 5.9888855,4.3615456 5.5682961,4.0911666 5.3771096,4.3885683 Z" />
    <path
       style="fill:#000000;stroke-width:0.264583"
       id="path291"
       d="M 5.5448816,4.6498845 C 5.8120377,4.9331326 6.1218079,5.1725811 6.4231982,5.4178019 6.7628642,5.7017652 7.1218514,5.9610561 7.4871373,6.2107402 7.7790542,6.4102006 8.0611341,5.9973678 7.7692172,5.7979074 v 0 C 7.4153439,5.5562065 7.0676483,5.3050797 6.7387538,5.0299556 6.457384,4.8010365 6.1676864,4.5780145 5.9165286,4.3154023 5.6800138,4.052608 5.3083668,4.3870903 5.5448816,4.6498845 Z" />
    <path
       style="fill:#000000;stroke-width:0.264583"
       id="path293"
       d="m 3.9534549,0.69882252 c 0.027561,0.32663868 0.00167,0.65359148 -0.02014,0.97964718 -0.030433,0.4014577 -0.075222,0.801581 -0.1042902,1.2031502 -0.017735,0.1977279 -0.01787,0.3953822 -0.00673,0.5933284 0.00616,0.1747454 0.040099,0.3087849 0.2232051,0.3920768 0.093111,0.042354 0.4068821,0.057825 0.4888725,0.064523 0.6950803,0.049318 1.3918816,0.066725 2.088342,0.083525 0.3534507,0.00852 0.3655036,-0.4913323 0.012052,-0.4998548 v 0 C 5.9476224,3.4986552 5.2601449,3.4815803 4.5743529,3.4331492 4.4928623,3.4267436 4.4115193,3.4180441 4.3298808,3.4139325 c -0.021796,-0.00108 -0.063411,-0.018127 -0.065377,0.00361 -0.00294,0.03256 0.043112,0.050009 0.057892,0.07917 0.00784,0.015467 0.00466,0.034402 0.00827,0.051366 0.00705,0.033176 -0.030713,-0.1817497 -0.00917,-0.1013373 C 4.3114711,3.2701838 4.3114023,3.0940615 4.3277218,2.9176723 4.356781,2.5151956 4.4021044,2.114205 4.4322007,1.7118105 4.4557195,1.3595845 4.4819564,1.0063115 4.4513989,0.65355387 4.4193896,0.30145246 3.9214432,0.34672031 3.9534523,0.69882172 Z" />
  </g>
</svg>
