<?xml version="1.0" encoding="UTF-8" standalone="no"?>
<!-- Created with Inkscape (http://www.inkscape.org/) -->

<svg
   width="48"
   height="48"
   viewBox="0 0 12.7 12.7"
   version="1.1"
   id="svg182"
   inkscape:version="1.2.2 (732a01da63, 2022-12-09)"
   sodipodi:docname="r-down-turn.svg"
   xmlns:inkscape="http://www.inkscape.org/namespaces/inkscape"
   xmlns:sodipodi="http://sodipodi.sourceforge.net/DTD/sodipodi-0.dtd"
   xmlns="http://www.w3.org/2000/svg"
   xmlns:svg="http://www.w3.org/2000/svg">
  <sodipodi:namedview
     id="namedview184"
     pagecolor="#505050"
     bordercolor="#eeeeee"
     borderopacity="1"
     inkscape:showpageshadow="0"
     inkscape:pageopacity="0"
     inkscape:pagecheckerboard="0"
     inkscape:deskcolor="#505050"
     inkscape:document-units="mm"
     showgrid="false"
     inkscape:zoom="9.5144352"
     inkscape:cx="20.284967"
     inkscape:cy="40.885244"
     inkscape:window-width="1920"
     inkscape:window-height="1137"
     inkscape:window-x="-8"
     inkscape:window-y="-8"
     inkscape:window-maximized="1"
     inkscape:current-layer="layer1" />
  <defs
     id="defs179" />
  <g
     inkscape:label="Layer 1"
     inkscape:groupmode="layer"
     id="layer1">
    <path
       style="fill:#000000;stroke-width:0.264583"
       id="path192"
       d="m 6.3406435,3.3869304 c 0.011748,0.3586218 -0.016412,0.715472 -0.04805,1.0723324 -0.066253,0.6096778 -0.1102262,1.2209889 -0.1385581,1.8335017 -0.028716,0.5873832 -0.048195,1.1751394 -0.058658,1.7631177 -0.00545,0.3526313 -0.0057,0.7053116 -0.00569,1.0579758 1.141e-4,0.2328513 3.704e-4,0.4657021 5.556e-4,0.6985532 1.51e-5,0.020669 3.05e-5,0.041339 4.58e-5,0.062008 2.617e-4,0.3535538 0.5002615,0.3531838 0.4999998,-3.704e-4 v 0 c -1.53e-5,-0.020683 -3.04e-5,-0.041367 -4.58e-5,-0.06205 C 6.5900524,9.5792794 6.5897944,9.3465599 6.5896886,9.1138403 6.5896759,8.7641445 6.589914,8.4144328 6.5952978,8.0647695 6.6056562,7.481518 6.6250187,6.8984886 6.6535032,6.3158282 6.6814149,5.710329 6.7251537,5.1060556 6.7906444,4.5033657 c 0.032858,-0.3715009 0.061633,-0.7431265 0.049998,-1.1164356 0,-0.3535534 -0.4999998,-0.3535534 -0.4999989,3e-7 z" />
    <path
       style="fill:#000000;stroke-width:0.264583"
       id="path194"
       d="M 4.3865606,7.7751764 C 4.5543969,7.9805796 4.7040149,8.199648 4.8593938,8.4143595 5.0691065,8.687859 5.2862204,8.9552398 5.4895342,9.233632 c 0.1393394,0.1829152 0.2764295,0.3674938 0.4226147,0.5450472 0.055485,0.076119 0.1343647,0.1326539 0.1872948,0.2105652 0.029927,0.056501 0.067169,0.1090606 0.1037149,0.1614616 0.2038659,0.288857 0.6123722,5.55e-4 0.4085063,-0.2883103 v 0 C 6.5727489,9.8084702 6.5382491,9.7522852 6.5039371,9.695331 6.4414251,9.6113943 6.3668684,9.539239 6.2980334,9.4607276 6.1578886,9.290782 6.0270133,9.1136686 5.8932825,8.9386957 5.690331,8.6609348 5.4744201,8.3935357 5.2644174,8.1211774 5.1056111,7.9018542 4.9526737,7.6780921 4.7812367,7.4682061 4.5641759,7.1891281 4.1694999,7.4960982 4.3865606,7.7751764 Z" />
    <path
       style="fill:#000000;stroke-width:0.264583"
       id="path196"
       d="M 7.6186045,7.7481209 C 7.4596645,7.9170532 7.3171147,8.1001401 7.1743646,8.2826462 7.0152947,8.4909632 6.8622952,8.7029027 6.7267343,8.9273093 6.6359798,9.0865893 6.552263,9.2493112 6.4548329,9.4047031 6.3496869,9.5732115 6.2329168,9.7335537 6.1316192,9.9044933 5.9518565,10.208936 6.3824037,10.463159 6.5621664,10.158716 v 0 C 6.6607012,9.9911079 6.7771321,9.8354977 6.8787702,9.6698013 6.9772862,9.5118953 7.0641548,9.3478502 7.1549288,9.1854749 7.2796687,8.9781252 7.4218344,8.783277 7.5682016,8.5906924 7.7087234,8.411035 7.8493857,8.2312697 8.0055833,8.0647396 8.2294665,7.7911046 7.8424878,7.4744857 7.6186045,7.7481209 Z" />
    <path
       style="fill:#000000;stroke-width:0.264583"
       id="path198"
       d="M 3.6353498,0.69778953 C 3.6994213,1.0770257 3.7070858,1.4641213 3.6837823,1.8474538 3.6774826,1.9510966 3.6662061,2.054377 3.6574192,2.1578385 3.596595,2.6972162 3.525789,3.2352009 3.4824045,3.7763577 c -0.01674,0.2503159 -0.00947,0.1310767 -0.022185,0.3576939 -0.019767,0.3530004 0.4794509,0.3809552 0.4992179,0.027955 v 0 C 3.9716847,3.9429375 3.9646838,4.0582003 3.9808102,3.8162407 4.0239788,3.2757247 4.0957764,2.738506 4.1556635,2.1996873 4.1649319,2.088174 4.1768699,1.9768505 4.1834686,1.8651474 4.2087231,1.4375772 4.1981582,1.0054661 4.1220575,0.58326985 4.0410799,0.23911492 3.5543712,0.35363459 3.635349,0.69778953 Z" />
    <path
       style="fill:#000000;stroke-width:0.264583"
       id="path200"
       d="m 4.0817339,0.70222398 c 0.1153337,-0.0351895 0.234523,-0.0442594 0.3543065,-0.0456259 0.1448543,-0.009619 0.2212318,0.0447371 0.3435746,0.11591864 0.1464752,0.0926184 0.2921432,0.19604133 0.4028456,0.33147408 0.063161,0.07727 0.085583,0.129399 0.1324306,0.2168652 0.081909,0.1797764 0.1095925,0.3455231 0.037828,0.5334615 -0.013565,0.035524 -0.0317,0.069129 -0.04755,0.1036939 C 5.1893385,2.1752991 5.0002214,2.3210515 4.792799,2.4441983 4.6334986,2.5336757 4.4650977,2.6041616 4.2866238,2.6438162 4.1958516,2.6705475 4.0440101,2.6518543 3.96265,2.69446 3.920616,2.716471 3.884379,2.748119 3.8452435,2.774949 c -0.015883,0.090084 -0.054332,0.1790229 -0.047645,0.2702512 0.00506,0.069081 0.1524529,0.1957395 0.2021493,0.2479223 0.1069573,0.1123082 0.098298,0.1073512 0.2115569,0.243909 0.2254689,0.2774217 0.43391,0.5679355 0.6404123,0.8595439 0.2043533,0.2885131 0.6123723,-4.762e-4 0.4080193,-0.288999 v 0 C 5.0456626,3.8054012 4.8295012,3.5044152 4.5955614,3.217115 4.4633501,3.0588458 4.4780252,3.0703649 4.3547574,2.9410316 4.333686,2.918923 4.3119169,2.8974872 4.2902354,2.8759763 c -0.010737,-0.010652 -0.022154,-0.042243 -0.032728,-0.03143 -0.064144,0.065588 0.4994309,0.2859185 -0.046465,0.2712704 -0.030815,0.017902 -0.060618,0.037668 -0.092444,0.053701 -0.00454,0.00228 -0.020217,0.00159 -0.015243,5.556e-4 0.0972,-0.020323 0.1999171,-0.011224 0.2961712,-0.039162 0.2290715,-0.05455 0.4477303,-0.1403469 0.6518349,-0.2587498 0.04468,-0.027341 0.090502,-0.052898 0.1340397,-0.082022 C 5.4286374,2.6274188 5.6315019,2.4181474 5.7644633,2.15562 5.8252417,2.0085571 5.8571399,1.956131 5.8815308,1.7963858 5.9197753,1.54591 5.8605012,1.303968 5.7523059,1.0786402 5.6693326,0.93211429 5.6529194,0.88752851 5.5421519,0.75668369 5.3988533,0.58741092 5.2155425,0.45557656 5.0288134,0.33904213 4.9413181,0.2892008 4.8831581,0.25210892 4.7895954,0.21440834 4.6743712,0.16797936 4.5520829,0.15334841 4.4287371,0.1566514 4.2628179,0.15948127 4.0976036,0.1746106 3.9380599,0.22331083 3.599417,0.32490365 3.7430911,0.80381678 4.0817339,0.70222398 Z" />
  </g>
</svg>
