<?xml version="1.0" encoding="UTF-8" standalone="no"?>
<!-- Created with Inkscape (http://www.inkscape.org/) -->

<svg
   width="48"
   height="48"
   viewBox="0 0 12.7 12.7"
   version="1.1"
   id="svg5"
   inkscape:version="1.2.2 (732a01da63, 2022-12-09)"
   sodipodi:docname="r-up-turn.svg"
   xmlns:inkscape="http://www.inkscape.org/namespaces/inkscape"
   xmlns:sodipodi="http://sodipodi.sourceforge.net/DTD/sodipodi-0.dtd"
   xmlns="http://www.w3.org/2000/svg"
   xmlns:svg="http://www.w3.org/2000/svg">
  <sodipodi:namedview
     id="namedview7"
     pagecolor="#505050"
     bordercolor="#eeeeee"
     borderopacity="1"
     inkscape:showpageshadow="0"
     inkscape:pageopacity="0"
     inkscape:pagecheckerboard="0"
     inkscape:deskcolor="#505050"
     inkscape:document-units="mm"
     showgrid="false"
     inkscape:zoom="9.5144352"
     inkscape:cx="61.695727"
     inkscape:cy="30.374898"
     inkscape:window-width="1920"
     inkscape:window-height="1137"
     inkscape:window-x="-8"
     inkscape:window-y="-8"
     inkscape:window-maximized="1"
     inkscape:current-layer="layer1" />
  <defs
     id="defs2" />
  <g
     inkscape:label="Layer 1"
     inkscape:groupmode="layer"
     id="layer1">
    <path
       style="fill:#000000;stroke-width:0.264583"
       id="path160"
       d="m 5.8678968,3.7907542 c -0.00636,0.2793232 -0.01392,0.5587804 -0.023336,0.8380608 -0.019648,0.419898 -0.05759,0.8386312 -0.084119,1.2581061 -0.02477,0.3824672 -0.052346,0.7647327 -0.070282,1.147599 -0.013785,0.3124494 -0.015886,0.6252202 -0.017119,0.937917 -6.35e-4,0.2698575 -2.91e-4,0.5397164 -7.64e-5,0.8095744 3.969e-4,0.2338848 0.034719,0.4655624 0.061595,0.6973612 0.00821,0.064648 0.012666,0.1296416 0.016772,0.194644 0.022614,0.3528293 0.5215895,0.320849 0.4989761,-0.03198 v 0 C 6.245535,9.568481 6.2404286,9.4949316 6.231229,9.4217611 6.2065328,9.2089562 6.1742846,8.996314 6.1729638,8.7816342 c -2.032e-4,-0.269077 -5.557e-4,-0.5381548 7.3e-5,-0.8072315 0.00119,-0.3055612 0.00317,-0.6111963 0.016576,-0.9165188 0.017756,-0.3801462 0.045315,-0.7596836 0.069834,-1.139435 0.026786,-0.4243776 0.065418,-0.8479904 0.08483,-1.272821 0.00956,-0.284884 0.017375,-0.5699371 0.023619,-0.8548737 0,-0.3535532 -0.5,-0.3535532 -0.499999,0 z" />
    <path
       style="fill:#000000;stroke-width:0.264583"
       id="path162"
       d="M 5.769965,3.5441895 C 5.6392889,3.7031768 5.4968158,3.8519536 5.3652435,4.0102154 5.2495873,4.1493328 5.2175682,4.1950941 5.1088226,4.3388944 4.9289813,4.5841848 4.758782,4.8363372 4.5865623,5.0869841 4.4897357,5.2343557 4.3857208,5.3761409 4.2771406,5.5149363 4.059302,5.7934076 4.45312,6.1014779 4.6709586,5.8230065 v 0 C 4.785887,5.6760818 4.8960164,5.525962 4.998681,5.3701066 5.1666179,5.1256149 5.3327056,4.8797408 5.5077888,4.640268 5.6057035,4.5104909 5.6402655,4.4615356 5.744265,4.3363178 5.8853546,4.1664429 6.0397844,4.0080538 6.1768317,3.8348083 6.3823304,3.5471102 5.9754637,3.2564911 5.769965,3.5441895 Z" />
    <path
       style="fill:#000000;stroke-width:0.264583"
       id="path164"
       d="m 5.9665393,3.8992312 c 0.021299,0.033603 0.04131,0.06806 0.063899,0.1008102 0.1024549,0.1485427 0.2200698,0.2864237 0.335834,0.4244848 0.1887956,0.2251594 0.1088507,0.1314 0.3099549,0.3605882 0.3143073,0.3527248 0.6520513,0.6835119 0.9877719,1.0156005 0.1456965,0.1411782 0.2924473,0.2812751 0.4432707,0.4169687 0.262954,0.236337 0.5971847,-0.1355365 0.3342307,-0.3718731 v 0 C 8.2964641,5.7156008 8.1557735,5.5806834 8.0156232,5.4452427 7.6882394,5.1214056 7.3587255,4.7989878 7.0519794,4.4552504 6.8304772,4.2030578 6.607626,3.9500516 6.4137529,3.6756244 6.2556389,3.3593968 5.8084254,3.5830036 5.9665393,3.8992312 Z" />
    <path
       style="fill:#000000;stroke-width:0.264583"
       id="path166"
       d="m 4.898785,0.56123323 c 0.020336,0.26886114 0.032588,0.53808117 0.040758,0.80756437 0.00235,0.3885954 0.023035,0.7765457 0.040398,1.1646523 0.00951,0.218185 0.015904,0.4364826 0.021333,0.6548007 0.0088,0.3534439 0.5086442,0.341 0.4998453,-0.012443 v 0 C 5.4955998,2.9541859 5.4890992,2.7325859 5.4794411,2.5111003 5.46218,2.1253789 5.4415938,1.7398207 5.439312,1.353611 5.4308364,1.0753381 5.4180816,0.79734002 5.3970578,0.5197105 5.3676967,0.16737838 4.8694239,0.20890112 4.898785,0.56123323 Z" />
    <path
       style="fill:#000000;stroke-width:0.264583"
       id="path168"
       d="m 5.6281333,0.75000661 c 0.1871554,-0.054612 0.3817458,-0.0556944 0.5745392,-0.0436049 0.1024782,0.0145931 0.2644137,0.0140176 0.3550981,0.0729903 0.00872,0.005671 0.064083,0.0651089 0.06411,0.0651367 C 6.7243158,0.95750396 6.7704137,1.1056404 6.8046746,1.2512087 6.8263416,1.3682992 6.8503386,1.4699481 6.7690636,1.567315 6.6046716,1.658995 6.420089,1.6994112 6.2383314,1.7407125 6.041243,1.7780695 5.8436302,1.8112775 5.6472506,1.8521973 5.5290845,1.8810183 5.3794769,1.9275603 5.3483275,2.0734059 c -0.017875,0.083691 0.00854,0.1738458 0.039278,0.2537136 0.021886,0.056869 0.1506056,0.1454344 0.1983158,0.181561 0.2516904,0.1775916 0.5239808,0.3205652 0.8035705,0.4483309 0.2816323,0.1228572 0.5666412,0.2379729 0.8522706,0.3511841 0.1017415,0.043188 0.2034158,0.086483 0.3056281,0.1285428 0.32698,0.1344774 0.5171596,-0.327942 0.1901796,-0.4624194 v 0 C 7.6333487,2.9314809 7.5297884,2.8871156 7.4259495,2.8433564 7.1480631,2.7332823 6.8708446,2.6211984 6.5967405,2.5019859 6.348522,2.3893566 6.1070915,2.2628208 5.8831061,2.106584 c -0.131962,-0.093418 -0.00677,-0.0091 -0.068278,0.1467587 -0.043154,0.109342 -0.1965391,0.1215604 -0.065569,0.088338 0.19944,-0.041569 0.4003003,-0.074514 0.6002771,-0.1134918 0.2439297,-0.055841 0.5269981,-0.1143755 0.726136,-0.2761266 0.043181,-0.035074 0.077972,-0.079371 0.1169577,-0.1190569 0.023307,-0.040429 0.050644,-0.07879 0.069924,-0.121288 0.08328,-0.1835709 0.06887,-0.387418 0.027863,-0.57906 C 7.2305727,0.89336366 7.1428146,0.66049019 6.9657827,0.48158074 6.8784633,0.40242572 6.8564913,0.37255174 6.7478671,0.31693844 6.5897053,0.23596279 6.4039524,0.22558975 6.231166,0.20721422 6.1765679,0.20433441 6.1220381,0.19948912 6.067372,0.19857478 5.8614267,0.19513019 5.654404,0.21980084 5.4572616,0.2801099 5.1249944,0.40093431 5.2958661,0.87083103 5.6281333,0.75000661 Z" />
  </g>
</svg>
