<?xml version="1.0" encoding="UTF-8" standalone="no"?>
<!-- Created with Inkscape (http://www.inkscape.org/) -->

<svg
   width="48"
   height="48"
   viewBox="0 0 12.7 12.7"
   version="1.1"
   id="svg331"
   inkscape:version="1.2.2 (732a01da63, 2022-12-09)"
   sodipodi:docname="u-left-turn.svg"
   xmlns:inkscape="http://www.inkscape.org/namespaces/inkscape"
   xmlns:sodipodi="http://sodipodi.sourceforge.net/DTD/sodipodi-0.dtd"
   xmlns="http://www.w3.org/2000/svg"
   xmlns:svg="http://www.w3.org/2000/svg">
  <sodipodi:namedview
     id="namedview333"
     pagecolor="#505050"
     bordercolor="#eeeeee"
     borderopacity="1"
     inkscape:showpageshadow="0"
     inkscape:pageopacity="0"
     inkscape:pagecheckerboard="0"
     inkscape:deskcolor="#505050"
     inkscape:document-units="mm"
     showgrid="false"
     inkscape:zoom="13.455443"
     inkscape:cx="30.545259"
     inkscape:cy="31.734369"
     inkscape:window-width="1920"
     inkscape:window-height="1137"
     inkscape:window-x="-8"
     inkscape:window-y="-8"
     inkscape:window-maximized="1"
     inkscape:current-layer="layer1" />
  <defs
     id="defs328" />
  <g
     inkscape:label="Layer 1"
     inkscape:groupmode="layer"
     id="layer1">
    <path
       style="fill:#000000;stroke-width:0.264583"
       id="path335"
       d="m 4.0366791,0.95947395 c -0.00135,0.24081085 -0.00143,0.48138595 0.010628,0.72193285 0.027871,0.3220525 0.1076648,0.6378349 0.2247754,0.9388202 0.026934,0.069221 0.057641,0.1369144 0.086462,0.2053716 0.162719,0.341013 0.33592,0.6844805 0.5773714,0.9780275 0.043676,0.0531 0.091942,0.1022525 0.1379124,0.153379 0.049011,0.044606 0.095638,0.091982 0.1470343,0.1338188 0.1807982,0.1471716 0.4334335,0.2862133 0.6681488,0.314883 0.070864,0.00865 0.1427528,0.00288 0.2141289,0.00431 0.07832,-0.018547 0.1589183,-0.029262 0.234959,-0.055639 C 6.639688,4.2497639 6.978865,3.9933668 7.1764905,3.7445185 7.231454,3.675309 7.2751904,3.597883 7.3245405,3.5245651 7.361716,3.4446704 7.4040584,3.3669824 7.4360669,3.2848812 7.492022,3.1413571 7.5361402,2.9585565 7.5676735,2.8075017 7.6089258,2.6098908 7.6360355,2.4098363 7.6618197,2.2097833 7.6926439,1.9367752 7.7081472,1.6618083 7.6960155,1.3872325 7.6928934,1.2750107 7.6728618,1.1651567 7.6504849,1.0556006 c -0.0037,-0.016943 -0.00524,-0.034171 -0.00624,-0.051439 -0.025061,-0.352664 -0.5238043,-0.31722065 -0.4987422,0.035443 v 0 c 0.00297,0.038974 0.00699,0.077877 0.015124,0.1161748 0.017243,0.08422 0.034403,0.1682101 0.035932,0.2546886 0.012144,0.2454928 -0.00451,0.4914863 -0.030664,0.7356325 C 7.1423902,2.3298574 7.117458,2.513504 7.0804592,2.695159 7.0572658,2.8090288 7.0201808,2.9689052 6.9803329,3.0791988 6.9592165,3.1376453 6.9310686,3.1933067 6.9064367,3.2503607 6.8733815,3.302694 6.8446033,3.3579871 6.8072708,3.40736 6.6604406,3.6015469 6.4290071,3.7738076 6.2066339,3.871973 6.1714479,3.887507 6.1340189,3.897357 6.0977118,3.910049 6.0645318,3.912619 6.0313858,3.919879 5.9981738,3.917769 5.8476699,3.9082128 5.670874,3.8101108 5.5549971,3.7188637 5.5162291,3.6883366 5.4810083,3.6535592 5.444015,3.6209073 5.4075332,3.5812185 5.3691123,3.5432283 5.3345698,3.5018403 5.117489,3.2417366 4.9657767,2.9335031 4.8190081,2.6307324 4.7936734,2.5712219 4.7666626,2.5123973 4.7430041,2.4522008 4.6426717,2.1969177 4.572377,1.9293169 4.5466576,1.6559357 4.5345794,1.4238969 4.5357938,1.1917779 4.5366775,0.95947395 c 0,-0.35355339 -0.4999997,-0.35355339 -0.4999997,0 z" />
    <path
       style="fill:#000000;stroke-width:0.264583"
       id="path337"
       d="M 10.143212,6.7489395 C 9.6289031,6.7145471 9.113082,6.7099946 8.5978467,6.70249 7.735503,6.6926369 6.8730904,6.6918749 6.0107012,6.691097 5.3794072,6.6986033 4.7485358,6.6803047 4.1178263,6.6562705 3.8537856,6.6466317 3.5896894,6.6380777 3.3255122,6.6332623 c -0.097365,-0.00159 -0.1947445,-0.0014 -0.2921183,-0.0013 -0.01728,2.17e-5 -0.034559,4.37e-5 -0.051838,6.57e-5 -0.3535531,4.498e-4 -0.3529192,0.5004477 6.35e-4,0.4999995 v 0 c 0.017275,-2.2e-5 0.034547,-4.37e-5 0.051821,-6.56e-5 0.094135,-1.162e-4 0.1882767,-3.175e-4 0.2824033,0.00122 0.260863,0.00474 0.5216445,0.013232 0.7823724,0.02273 0.6369028,0.02427 1.2739735,0.042666 1.911464,0.035189 0.8601141,7.673e-4 1.7202512,0.00153 2.5803201,0.01134 0.5025641,0.00731 1.005664,0.011803 1.5073733,0.044449 0.352101,0.032009 0.397369,-0.4659376 0.04527,-0.4979466 z" />
    <path
       style="fill:#000000;stroke-width:0.264583"
       id="path343"
       d="M 3.1526564,7.0539622 C 3.3081819,6.9185059 3.4322218,6.7527386 3.5607453,6.5927215 3.7498993,6.3593117 3.997516,6.1871968 4.2432538,6.0191438 4.360841,5.9413044 4.4781372,5.8629322 4.5932502,5.7814691 4.8816773,5.5769946 4.5925094,5.169097 4.3040794,5.3735718 v 0 C 4.1913492,5.4536548 4.0759544,5.5299728 3.9608267,5.6065485 3.6747267,5.8025588 3.3899504,6.0068234 3.1709132,6.2796226 3.0607079,6.4168403 2.9556961,6.5603781 2.8234042,6.6776739 2.5573281,6.9104903 2.8865803,7.2867786 3.1526564,7.0539622 Z" />
    <path
       style="fill:#000000;stroke-width:0.264583"
       id="path345"
       d="m 2.8957682,7.1755957 c 0.1355421,0.1101921 0.2526292,0.2399072 0.3693674,0.3691713 0.1884431,0.2050563 0.3656438,0.4199752 0.5526878,0.626247 0.1618517,0.1707637 0.3321402,0.3333858 0.5030843,0.4949843 0.093672,0.085712 0.1914274,0.1667635 0.2857646,0.2517252 0.031039,0.028569 0.018365,0.015563 0.039041,0.038003 0.2456394,0.2542857 0.6052539,-0.093101 0.3596145,-0.3473866 v 0 C 4.9619683,8.5642621 4.9834313,8.5849295 4.9411752,8.546095 4.8497889,8.4638802 4.7554766,8.3850286 4.6643049,8.3025728 4.5025788,8.149836 4.3416407,7.9959614 4.1880718,7.8349839 4.0010897,7.6291571 3.8246047,7.4140763 3.6361208,7.2095507 3.502515,7.0617629 3.3675616,6.9144308 3.2123872,6.7886172 2.9387519,6.5647336 2.622133,6.9517124 2.8957682,7.1755957 Z" />
  </g>
</svg>
