<?xml version="1.0" encoding="UTF-8" standalone="no"?>
<!-- Created with Inkscape (http://www.inkscape.org/) -->

<svg
   width="48"
   height="48"
   viewBox="0 0 12.7 12.7"
   version="1.1"
   id="svg358"
   inkscape:version="1.2.2 (732a01da63, 2022-12-09)"
   sodipodi:docname="u-right-turn.svg"
   xmlns:inkscape="http://www.inkscape.org/namespaces/inkscape"
   xmlns:sodipodi="http://sodipodi.sourceforge.net/DTD/sodipodi-0.dtd"
   xmlns="http://www.w3.org/2000/svg"
   xmlns:svg="http://www.w3.org/2000/svg">
  <sodipodi:namedview
     id="namedview360"
     pagecolor="#505050"
     bordercolor="#eeeeee"
     borderopacity="1"
     inkscape:showpageshadow="0"
     inkscape:pageopacity="0"
     inkscape:pagecheckerboard="0"
     inkscape:deskcolor="#505050"
     inkscape:document-units="mm"
     showgrid="false"
     inkscape:zoom="13.455443"
     inkscape:cx="49.645336"
     inkscape:cy="32.849159"
     inkscape:window-width="1920"
     inkscape:window-height="1137"
     inkscape:window-x="-8"
     inkscape:window-y="-8"
     inkscape:window-maximized="1"
     inkscape:current-layer="layer1" />
  <defs
     id="defs355" />
  <g
     inkscape:label="Layer 1"
     inkscape:groupmode="layer"
     id="layer1">
    <path
       style="fill:#000000;stroke-width:0.264583"
       id="path372"
       d="m 4.9608713,1.3040115 c -0.00332,0.1954622 0.024844,0.3904416 0.073104,0.5796262 0.016558,0.064904 0.036887,0.1287863 0.055331,0.1931794 0.121743,0.3942936 0.3006142,0.7699119 0.5306226,1.1127323 0.05183,0.07725 0.1089533,0.1508146 0.16343,0.2262219 0.060132,0.070264 0.1150763,0.1453232 0.1803963,0.2107922 0.227774,0.2282936 0.4916924,0.3856308 0.8020185,0.4757034 0.2763502,0.080211 0.3474752,0.06392 0.6314191,0.071307 C 7.4998682,4.1586986 7.6042366,4.1527401 7.7052195,4.1289485 7.9943136,4.0608403 8.2615944,3.918709 8.4719974,3.7081682 8.6471259,3.5329248 8.6601495,3.469681 8.7758713,3.2529613 8.897908,2.9406537 8.9433275,2.6077735 8.9462101,2.2741402 8.9473478,2.1427869 8.9401194,2.0587508 8.9321872,1.9303159 8.9173102,1.7425699 8.901106,1.5544603 8.8624978,1.3699013 8.8473094,1.3040329 8.8234352,1.2405669 8.8086381,1.174629 8.7283048,0.83032311 8.2413829,0.94393151 8.3217162,1.2882374 v 0 c 0.01492,0.062707 0.033821,0.1242259 0.05181,0.1861023 0.035265,0.1600648 0.044548,0.3245449 0.059647,0.4873497 0.00688,0.107323 0.01365,0.1868617 0.013319,0.2956582 C 8.4456991,2.5174987 8.4151495,2.7783853 8.3306361,3.0254419 8.2612774,3.1711368 8.2567218,3.2088322 8.1457074,3.3293087 8.0068326,3.4800201 7.8253555,3.5825395 7.6278279,3.6349744 7.5547542,3.654371 7.4788307,3.6607421 7.4043322,3.6736244 7.1957569,3.6739949 7.1449355,3.6874489 6.9399141,3.6335718 6.7155139,3.5746023 6.50842,3.4632373 6.3426233,3.3002833 6.2865261,3.2451481 6.2395327,3.1814574 6.1879873,3.1220444 6.140156,3.0565153 6.0899142,2.9926796 6.0444935,2.9254571 5.8390472,2.6213996 5.6783157,2.2884032 5.5696468,1.9379917 5.5085874,1.7289447 5.4530976,1.5238479 5.4608713,1.3040115 c 0,-0.35355341 -0.5,-0.35355341 -0.5,0 z" />
    <path
       style="fill:#000000;stroke-width:0.264583"
       id="path374"
       d="m 2.7654972,6.3428302 c 0.5635551,-0.014512 1.1274105,-0.012449 1.691101,-0.019267 0.9552948,-0.014589 1.9106274,-0.025942 2.8660106,-0.032529 0.5197218,-0.00327 1.0394537,-0.00408 1.5591842,-0.00451 0.3535532,-2.911e-4 0.3531347,-0.5002959 -4.233e-4,-0.4999998 v 0 c -0.5207399,4.233e-4 -1.0414817,0.00124 -1.5622129,0.00452 -0.9562529,0.00659 -1.9124549,0.017947 -2.8686194,0.032554 -0.5727541,0.00695 -1.1457207,0.00419 -1.7183044,0.020339 C 2.3794626,5.8674563 2.4127222,6.366348 2.7654924,6.34283 Z" />
    <path
       style="fill:#000000;stroke-width:0.264583"
       id="path376"
       d="m 8.5104988,5.3538937 c 0.031947,0.020301 0.062958,0.042158 0.095841,0.060906 0.1007242,0.05743 0.2110068,0.108189 0.3161831,0.1557481 0.1990921,0.090026 0.4010417,0.1717722 0.6045973,0.2510202 0.1708417,0.063597 0.3437112,0.1212086 0.5176728,0.175564 0.03801,0.011875 0.15229,0.043471 0.197672,0.067908 0.0038,0.00204 0.0024,0.00823 0.0036,0.012338 -0.09683,-0.079594 -0.03307,-0.00966 -0.08822,-0.1397074 -0.0022,-0.00525 -0.0086,-0.013467 -0.01349,-0.010528 -0.0219,0.013166 -0.03689,0.035366 -0.05601,0.052316 -0.08039,0.071291 -0.1610941,0.1368925 -0.2440227,0.2057601 -0.3132839,0.2643558 -0.6490316,0.499914 -0.9831684,0.7366965 -0.1151488,0.082839 -0.060735,0.042168 -0.1635998,0.1215316 -0.2795648,0.2164337 0.026519,0.6117979 0.3060835,0.3953643 v 0 C 9.0914066,7.3705741 9.0427726,7.4072041 9.150248,7.329867 9.4948445,7.0856667 9.8408176,6.8423638 10.163915,6.569745 c 0.06511,-0.054155 0.221982,-0.1821169 0.285224,-0.2441249 0.0717,-0.070306 0.17539,-0.1803612 0.197737,-0.2838246 0.0153,-0.070856 0.01726,-0.1478889 -0.0031,-0.2174489 -0.01741,-0.059341 -0.07028,-0.1017728 -0.105422,-0.1526593 -0.03803,-0.024148 -0.074,-0.051901 -0.114096,-0.072443 C 10.369283,5.5711002 10.251544,5.5378595 10.19475,5.5201502 10.031307,5.4691856 9.8689283,5.415064 9.7083556,5.3555719 9.4049407,5.2376948 9.0993753,5.1176332 8.8153533,4.9575823 8.5351185,4.742017 8.2302629,5.1383289 8.5104988,5.3538937 Z" />
    <path
       style="fill:#000000;stroke-width:0.264583"
       id="path378"
       d="m 8.8787371,6.2639931 c 0.1249508,-0.0085 0.2501643,-0.011925 0.3753549,-0.014412 0.1063773,-0.0019 0.2127723,-0.0022 0.3191634,-0.0023 0.084626,-6.35e-4 0.1692606,0.0022 0.2537521,-0.00299 0.059574,-0.00629 0.1192262,-0.011655 0.1790605,-0.014655 0.353092,-0.018047 0.32757,-0.5173948 -0.025522,-0.4993481 v 0 c -0.064027,0.00332 -0.1279337,0.00843 -0.1916658,0.01546 -0.070925,0.010083 -0.14483,-0.0047 -0.2161167,0.00153 -0.1095526,1.085e-4 -0.2191094,4.233e-4 -0.3286474,0.00238 -0.1346568,0.0027 -0.2693387,0.00646 -0.4037269,0.015785 -0.3525121,0.027116 -0.3141636,0.5256434 0.038348,0.4985273 z" />
  </g>
</svg>
